<?xml version="1.0"?>
<svg xmlns="http://www.w3.org/2000/svg" xmlns:xlink="http://www.w3.org/1999/xlink" version="1.1" id="Capa_1" x="0px" y="0px" viewBox="0 0 512 512" style="enable-background:new 0 0 512 512;" xml:space="preserve" width="512px" height="512px"><g><g>
	<g>
		<path d="M170.667,76.8H8.533C3.823,76.8,0,80.623,0,85.333v256c0,4.71,3.823,8.533,8.533,8.533h162.133    c4.71,0,8.533-3.823,8.533-8.533v-256C179.2,80.623,175.377,76.8,170.667,76.8z M162.133,332.8H17.067V93.867h145.067V332.8z" data-original="#000000" class="active-path" data-old_color="#000000" fill="#00695C"/>
	</g>
</g><g>
	<g>
		<path d="M332.8,76.8H170.667c-4.71,0-8.533,3.823-8.533,8.533v256c0,4.71,3.823,8.533,8.533,8.533H332.8    c4.71,0,8.533-3.823,8.533-8.533v-256C341.333,80.623,337.51,76.8,332.8,76.8z M324.267,332.8H179.2V93.867h145.067V332.8z" data-original="#000000" class="active-path" data-old_color="#000000" fill="#00695C"/>
	</g>
</g><g>
	<g>
		<path d="M486.4,332.8H25.6c-4.71,0-8.533,3.823-8.533,8.533v34.133c0,4.71,3.823,8.533,8.533,8.533h460.8    c4.719,0,8.533-3.823,8.533-8.533v-34.133C494.933,336.623,491.119,332.8,486.4,332.8z M477.867,366.933H34.133v-17.067h443.733    V366.933z" data-original="#000000" class="active-path" data-old_color="#000000" fill="#00695C"/>
	</g>
</g><g>
	<g>
		<path d="M503.467,76.8H332.8c-4.71,0-8.533,3.823-8.533,8.533v85.333c0,4.71,3.823,8.533,8.533,8.533h170.667    c4.719,0,8.533-3.823,8.533-8.533V85.333C512,80.623,508.186,76.8,503.467,76.8z M494.933,162.133h-153.6V93.867h153.6V162.133z" data-original="#000000" class="active-path" data-old_color="#000000" fill="#00695C"/>
	</g>
</g><g>
	<g>
		<path d="M503.467,162.133H332.8c-4.71,0-8.533,3.823-8.533,8.533V256c0,4.71,3.823,8.533,8.533,8.533h170.667    c4.719,0,8.533-3.823,8.533-8.533v-85.333C512,165.956,508.186,162.133,503.467,162.133z M494.933,247.467h-153.6V179.2h153.6    V247.467z" data-original="#000000" class="active-path" data-old_color="#000000" fill="#00695C"/>
	</g>
</g><g>
	<g>
		<path d="M503.467,247.467H332.8c-4.71,0-8.533,3.823-8.533,8.533v85.333c0,4.71,3.823,8.533,8.533,8.533h170.667    c4.719,0,8.533-3.823,8.533-8.533V256C512,251.29,508.186,247.467,503.467,247.467z M494.933,332.8h-153.6v-68.267h153.6V332.8z" data-original="#000000" class="active-path" data-old_color="#000000" fill="#00695C"/>
	</g>
</g><g>
	<g>
		<path d="M443.699,119.629c-4.608,0-8.388,3.797-8.567,8.371h-34.065c0-4.71-3.823-8.533-8.533-8.533    c-4.71,0-8.533,3.823-8.533,8.533c0,9.412,7.27,17.067,16.213,17.067h35.84c8.934,0,16.213-7.654,16.213-17.067    C452.267,123.29,448.41,119.629,443.699,119.629z" data-original="#000000" class="active-path" data-old_color="#000000" fill="#00695C"/>
	</g>
</g><g>
	<g>
		<path d="M443.699,204.962c-4.608,0-8.388,3.797-8.568,8.371h-34.065c0-4.71-3.823-8.533-8.533-8.533S384,208.623,384,213.333    c0,9.412,7.27,17.067,16.213,17.067h35.84c8.934,0,16.213-7.654,16.213-17.067C452.267,208.623,448.41,204.962,443.699,204.962z" data-original="#000000" class="active-path" data-old_color="#000000" fill="#00695C"/>
	</g>
</g><g>
	<g>
		<path d="M443.699,290.295c-4.608,0-8.388,3.797-8.568,8.371h-34.065c0-4.71-3.823-8.533-8.533-8.533S384,293.956,384,298.667    c0,9.412,7.27,17.067,16.213,17.067h35.84c8.934,0,16.213-7.654,16.213-17.067C452.267,293.956,448.41,290.295,443.699,290.295z" data-original="#000000" class="active-path" data-old_color="#000000" fill="#00695C"/>
	</g>
</g><g>
	<g>
		<path d="M135.526,371.439c-1.485-2.773-4.378-4.506-7.526-4.506H59.733c-4.71,0-8.533,3.823-8.533,8.533v51.2    c0,4.71,3.823,8.533,8.533,8.533h34.133c2.85,0,5.513-1.425,7.1-3.806l34.133-51.2    C136.849,377.583,137.011,374.212,135.526,371.439z M89.301,418.133H68.267V384h43.793L89.301,418.133z" data-original="#000000" class="active-path" data-old_color="#000000" fill="#00695C"/>
	</g>
</g><g>
	<g>
		<path d="M452.267,366.933h-51.2c-2.739,0-5.316,1.314-6.912,3.541c-1.604,2.227-2.048,5.086-1.178,7.689l17.067,51.2    c1.161,3.49,4.412,5.837,8.09,5.837h34.133c4.719,0,8.533-3.823,8.533-8.533v-51.2C460.8,370.756,456.986,366.933,452.267,366.933    z M443.733,418.133h-19.447L412.911,384h30.822V418.133z" data-original="#000000" class="active-path" data-old_color="#000000" fill="#00695C"/>
	</g>
</g><g>
	<g>
		<path d="M128,230.4h-8.533v-51.2H128c4.71,0,8.533-3.823,8.533-8.533c0-4.71-3.823-8.533-8.533-8.533h-17.067    c-4.71,0-8.533,3.823-8.533,8.533v68.267c0,4.71,3.823,8.533,8.533,8.533H128c4.71,0,8.533-3.823,8.533-8.533    C136.533,234.223,132.71,230.4,128,230.4z" data-original="#000000" class="active-path" data-old_color="#000000" fill="#00695C"/>
	</g>
</g><g>
	<g>
		<path d="M230.4,162.133h-17.067c-4.71,0-8.533,3.823-8.533,8.533c0,4.71,3.823,8.533,8.533,8.533h8.533v51.2h-8.533    c-4.71,0-8.533,3.823-8.533,8.533c0,4.71,3.823,8.533,8.533,8.533H230.4c4.71,0,8.533-3.823,8.533-8.533v-68.267    C238.933,165.956,235.11,162.133,230.4,162.133z" data-original="#000000" class="active-path" data-old_color="#000000" fill="#00695C"/>
	</g>
</g></g> </svg>
